<svg width="29" height="28" viewBox="0 0 29 28" xmlns="http://www.w3.org/2000/svg"><title>3B8A2621-746D-4CE7-9847-88D6BCE2CD8D</title><g transform="translate(.231)" fill="#C7C7CD" fill-rule="evenodd"><path d="M19.552 9.644a2.4 2.4 0 0 0-1.375-1.376 4.003 4.003 0 0 0-1.345-.25c-.763-.034-.992-.042-2.926-.042-1.934 0-2.163.008-2.927.043-.46.005-.914.09-1.345.25A2.4 2.4 0 0 0 8.26 9.643a4.02 4.02 0 0 0-.25 1.346c-.035.765-.042.994-.042 2.93 0 1.936.008 2.165.042 2.93.006.46.09.915.25 1.346a2.4 2.4 0 0 0 1.374 1.376c.43.16.886.244 1.345.25.764.034.993.042 2.927.042 1.934 0 2.163-.008 2.926-.043.46-.005.915-.09 1.345-.25a2.4 2.4 0 0 0 1.375-1.375 4.02 4.02 0 0 0 .25-1.346c.034-.765.041-.994.041-2.93 0-1.936-.007-2.165-.042-2.93a4.014 4.014 0 0 0-.25-1.346zm-5.646 7.999a3.721 3.721 0 0 1-3.72-3.723 3.721 3.721 0 0 1 3.72-3.723 3.725 3.725 0 1 1 0 7.446zm3.866-6.723a.87.87 0 1 1 0-1.74.87.87 0 0 1 0 1.74z"/><ellipse cx="13.906" cy="13.92" rx="2.414" ry="2.417"/><path d="M13.906 0C6.226 0 0 6.232 0 13.92s6.226 13.92 13.906 13.92c7.68 0 13.905-6.232 13.905-13.92a13.93 13.93 0 0 0-4.072-9.843A13.898 13.898 0 0 0 13.906 0zm7.199 16.91a5.327 5.327 0 0 1-.337 1.759 3.704 3.704 0 0 1-2.118 2.12 5.312 5.312 0 0 1-1.758.337c-.773.036-1.02.044-2.986.044-1.967 0-2.214-.008-2.986-.044a5.312 5.312 0 0 1-1.758-.337 3.704 3.704 0 0 1-2.119-2.12 5.327 5.327 0 0 1-.336-1.76c-.036-.773-.044-1.02-.044-2.989 0-1.969.008-2.216.044-2.99a5.327 5.327 0 0 1 .336-1.76 3.704 3.704 0 0 1 2.119-2.12 5.312 5.312 0 0 1 1.758-.336c.772-.036 1.019-.044 2.986-.044 1.967 0 2.213.008 2.986.044.6.012 1.195.126 1.758.337a3.704 3.704 0 0 1 2.118 2.12c.21.563.325 1.158.337 1.76.035.773.043 1.02.043 2.989 0 1.969-.008 2.216-.043 2.99z"/></g></svg>