<svg width="17" height="18" viewBox="0 0 17 18" xmlns="http://www.w3.org/2000/svg"><title>CEA90BFD-12F4-42DC-94F9-8B953B3A2B7A</title><g stroke="#ED1B34" fill="none" fill-rule="evenodd" stroke-linecap="round" stroke-linejoin="round"><path d="M15.576 7.004v5.129c0 2.455-2.03 4.447-4.536 4.447H5.548c-2.505 0-4.536-1.992-4.536-4.447v-5.13"/><path d="M5.551 1.31S3.718 2.341 4.236 3.815c.321.914 1.242 1.2 1.229 2.47-.016 1.418-1.23 2.255-1.23 2.255m4.713-7.23S7.115 2.341 7.633 3.815c.32.914 1.242 1.2 1.228 2.47C8.846 7.704 7.633 8.54 7.633 8.54m4.712-7.23s-1.834 1.032-1.316 2.506c.321.914 1.242 1.2 1.228 2.47-.015 1.418-1.228 2.255-1.228 2.255"/></g></svg>