<svg width="29" height="29" viewBox="0 0 29 29" xmlns="http://www.w3.org/2000/svg"><title>3262CC84-A5E8-444E-AC01-2A2B54138296</title><path d="M14.485.58C6.805.58.58 6.812.58 14.5s6.226 13.92 13.906 13.92c7.68 0 13.906-6.232 13.906-13.92S22.165.58 14.485.58zm5.348 15.705s1.23 1.215 1.533 1.78c.008.01.013.022.016.028.123.207.152.368.09.489-.1.2-.448.298-.567.307h-2.173c-.15 0-.466-.039-.849-.303-.294-.206-.583-.544-.866-.873-.421-.49-.786-.913-1.154-.913a.44.44 0 0 0-.138.021c-.278.09-.634.488-.634 1.546 0 .33-.261.52-.445.52h-.995c-.34 0-2.105-.118-3.67-1.77C8.068 15.094 6.344 11.037 6.33 11c-.11-.263.115-.403.36-.403h2.195c.292 0 .388.178.455.336.078.184.365.916.835 1.74.764 1.343 1.232 1.888 1.607 1.888a.434.434 0 0 0 .201-.052c.49-.273.398-2.02.377-2.383 0-.068-.002-.781-.252-1.123-.18-.248-.486-.343-.671-.377a.798.798 0 0 1 .288-.245c.336-.169.942-.193 1.543-.193h.335c.651.008.82.05 1.056.11.478.114.488.423.446 1.48-.013.3-.026.64-.026 1.04 0 .087-.005.18-.005.278-.014.538-.032 1.149.348 1.4a.32.32 0 0 0 .165.047c.132 0 .529 0 1.604-1.845.47-.815.835-1.777.861-1.848.022-.037.086-.153.161-.198a.385.385 0 0 1 .18-.042h2.58c.28 0 .473.042.51.15.063.173-.012.7-1.19 2.296-.198.264-.373.494-.526.694-1.067 1.401-1.067 1.472.067 2.535z" fill="#C7C7CD" fill-rule="evenodd"/></svg>